<?xml version="1.0" encoding="utf-8"?>
<!-- Generator: Adobe Illustrator 22.1.0, SVG Export Plug-In . SVG Version: 6.00 Build 0)  -->
<!DOCTYPE svg PUBLIC "-//W3C//DTD SVG 1.1//EN" "http://www.w3.org/Graphics/SVG/1.1/DTD/svg11.dtd">
<svg version="1.1" id="Layer_1" xmlns="http://www.w3.org/2000/svg" xmlns:xlink="http://www.w3.org/1999/xlink" x="0px" y="0px"
	 viewBox="0 0 198 60" style="enable-background:new 0 0 198 60;" xml:space="preserve">
<style type="text/css">
	.st0{opacity:0.15;}
	.st1{fill:#0050FF;}
	.st2{fill:#231F20;}
</style>
<g>
	<path class="st0" d="M29.5,58.5C13.8,58.5,1,45.7,1,30S13.8,1.5,29.5,1.5S58,14.3,58,30S45.2,58.5,29.5,58.5z M29.5,3.7
		C15,3.7,3.2,15.5,3.2,30c0,14.5,11.8,26.3,26.3,26.3S55.8,44.5,55.8,30C55.8,15.5,44,3.7,29.5,3.7z"/>
	<path class="st1" d="M29.5,58.5C13.8,58.5,1,45.7,1,30S13.8,1.5,29.5,1.5c7.9,0,15.5,3.3,20.9,9.1l-1.6,1.5c-5-5.3-12-8.4-19.3-8.4
		C15,3.7,3.2,15.5,3.2,30c0,14.5,11.8,26.3,26.3,26.3c7.3,0,14.3-3,19.2-8.4l1.6,1.5C44.9,55.2,37.3,58.5,29.5,58.5z"/>
	<polygon class="st1" points="39.5,31.4 28.3,31.4 28.3,14.3 30.5,14.3 30.5,29.2 39.5,29.2 	"/>
	<g>
		<path class="st2" d="M75.1,16.8c0-4.4,3.3-7.5,7.4-7.4c2.6,0,4.4,1.2,5.5,2.9l-1.5,0.8c-0.8-1.2-2.3-2.1-4-2.1
			c-3.1,0-5.5,2.4-5.5,5.8c0,3.4,2.4,5.9,5.5,5.9c1.7,0,3.2-0.9,4-2.1l1.5,0.8c-1.2,1.6-3,2.8-5.6,2.8
			C78.4,24.3,75.1,21.3,75.1,16.8z"/>
		<path class="st2" d="M107.1,17.5l-8.4,0l0,6.6l-1.8,0l0.1-14.4l1.8,0l0,6.2l8.4,0l0-6.2l1.8,0l-0.1,14.4l-1.8,0L107.1,17.5z"/>
		<path class="st2" d="M123.4,18.5l-2.9,0l0,5.7l-1.8,0l0.1-14.4l5.8,0c2.6,0,4.5,1.7,4.5,4.4c0,2.6-1.8,4-3.8,4.2l3.9,5.9l-2.1,0
			L123.4,18.5z M124.4,11.4l-3.8,0l0,5.5l3.8,0c1.7,0,2.9-1.1,2.9-2.8C127.2,12.5,126.1,11.4,124.4,11.4z"/>
		<path class="st2" d="M145,9.6c4.3,0,7.2,3.2,7.1,7.5c0,4.3-2.9,7.5-7.2,7.4c-4.3,0-7.2-3.2-7.1-7.5C137.9,12.8,140.7,9.6,145,9.6z
			 M145,11.2c-3.2,0-5.3,2.5-5.3,5.8c0,3.4,2,5.9,5.3,5.9c3.2,0,5.3-2.5,5.3-5.8C150.3,13.7,148.2,11.2,145,11.2z"/>
		<path class="st2" d="M163.3,12.7l0,11.6l-1.8,0l0.1-14.4l1.8,0l8.3,11.4l0-11.4l1.8,0l-0.1,14.4l-1.7,0L163.3,12.7z"/>
		<path class="st2" d="M189.9,9.8c4.3,0,7.2,3.2,7.1,7.5c0,4.3-2.9,7.5-7.2,7.4c-4.3,0-7.2-3.2-7.1-7.5
			C182.7,13,185.6,9.8,189.9,9.8z M189.9,11.4c-3.2,0-5.3,2.5-5.3,5.8c0,3.4,2,5.9,5.3,5.9c3.2,0,5.3-2.5,5.3-5.8
			C195.2,13.9,193.1,11.4,189.9,11.4z"/>
	</g>
	<g>
		<path class="st2" d="M75.8,35.9l1.8,0l0,12.8l6.7,0l0,1.6l-8.5,0L75.8,35.9z"/>
		<path class="st2" d="M99.1,35.6c4.3,0,7.2,3.2,7.2,7.5c0,4.3-2.9,7.5-7.2,7.5c-4.3,0-7.2-3.2-7.2-7.5S94.9,35.7,99.1,35.6z
			 M99.1,37.2c-3.2,0-5.3,2.5-5.3,5.9c0,3.4,2.1,5.9,5.3,5.9c3.2,0,5.3-2.5,5.3-5.9C104.5,39.7,102.4,37.2,99.1,37.2z"/>
		<path class="st2" d="M122.4,35.6c2.6,0,4.3,1.1,5.6,2.7l-1.4,0.9c-0.9-1.2-2.4-2-4.2-2c-3.2,0-5.6,2.4-5.6,5.9
			c0,3.4,2.4,5.9,5.6,5.9c1.7,0,3.2-0.9,3.9-1.6l0-2.9l-5,0l0-1.6l6.8,0l0,5.2c-1.3,1.5-3.3,2.5-5.7,2.5c-4.1,0-7.4-3-7.4-7.5
			C115,38.6,118.3,35.6,122.4,35.6z"/>
		<path class="st2" d="M137.5,35.8l1.8,0l0,14.4l-1.8,0L137.5,35.8z"/>
		<path class="st2" d="M148.6,43c0-4.4,3.3-7.5,7.3-7.5c2.6,0,4.4,1.2,5.5,2.8l-1.5,0.8c-0.8-1.2-2.3-2.1-4-2.1
			c-3.1,0-5.5,2.4-5.5,5.9c0,3.4,2.4,5.9,5.5,5.9c1.7,0,3.2-0.9,4-2.1l1.5,0.8c-1.2,1.6-2.9,2.9-5.6,2.9
			C151.9,50.5,148.6,47.5,148.6,43z"/>
	</g>
</g>
</svg>
