<?xml version="1.0" encoding="utf-8"?>
<!-- Generator: Adobe Illustrator 22.1.0, SVG Export Plug-In . SVG Version: 6.00 Build 0)  -->
<!DOCTYPE svg PUBLIC "-//W3C//DTD SVG 1.1//EN" "http://www.w3.org/Graphics/SVG/1.1/DTD/svg11.dtd">
<svg version="1.1" id="Layer_1" xmlns="http://www.w3.org/2000/svg" xmlns:xlink="http://www.w3.org/1999/xlink" x="0px" y="0px"
	 viewBox="0 0 740 870" style="enable-background:new 0 0 740 870;" xml:space="preserve">
<style type="text/css">
	.st0{fill:#000111;}
</style>
<g>
	<path class="st0" d="M155.2,583.7c-2.2-11.5-6.6-24.1-6.8-36.9c-0.4-42.3,16.9-79.3,38.4-114.5c0.5-0.7,1.6-1,2.4-1.5
		c-1.1,5.5-3.6,9.9-5.9,14.2c-15.9,30.6-30.2,61.7-30.9,97c-0.4,19.3,3.4,37.6,19.7,53c-0.2-4.1-0.6-6.9-0.5-9.8
		c0.5-13.7-0.1-27.5,1.7-41c4.6-34,16.9-65.3,33.2-95.6c10.5-19.7,23.4-33.9,45-39.9c3.2-0.9,6.1-3.2,10.5-5.6
		c-6.2-3.9-10.8-6.6-15.2-9.6c-10.3-7-13-17-7.5-28.4c2.7-5.7,5.1-11.9,9.2-16.4c15.1-16.7,22.9-35.7,21.2-58.4
		c-0.1-0.6,0.1-1.1,0.2-1.7c1.1-5.9-0.4-10.6-4.6-15.4c-16.7-19.1-15.3-39.1,3.7-55.4c4.7-4,4.5-6.9,2.4-12.2
		c-8.1-20.2-9.9-41.2-2.4-61.9c6.3-17.3,24.4-22.6,37.8-11.1c9,7.8,15.6,17.5,17.2,29.8c0.8,5.9,1.1,11.8,1.6,17.6
		c11.4,0,22.3,0,34,0c0-2.9,0.3-5.8-0.1-8.6c-1.6-12.4,3-23,9.5-33c13.1-20.5,43.4-24.8,58.4-7.5c14.1,16.3,22.1,35.4,18.2,57.6
		c-1.4,8-4.3,15.7-6.6,23.9c8.8,5.4,15.1,13.3,14.1,24.3c-1,9.5-4.3,18.8-6.2,28.2c-0.8,3.9-2.1,8.4-0.8,11.9
		c3.8,10.7,8.8,21,13.4,31.4c5.2,11.7,10.9,23.2,15.9,35c12.9,30.4,25.6,60.9,38.3,91.4c4.9,12.1,10.6,24.1,14.1,36.7
		c10.7,38.7,13,78.2,9.6,118.1c-0.4,4.7,0.4,6.9,5.2,8.9c9.6,3.8,14.6,11.6,14.5,22.2c0,4.3-1,8.7-0.3,12.8c0.6,4.1,2,9,4.7,11.5
		c10.9,9.8,28.1,9.9,40.6,2.3c15-9.1,24.1-23.1,34.1-39.1c-26.9-21.4-55.3-24.8-86.6-9.9c3.4-3.6,7-8.2,11-8.8
		c12.1-1.5,15.2-10,18-19.5c1.6-5.7,3.6-11.4,5.1-17.2c11.3-43.1,3.6-82.3-25.8-116.1c-7.6-8.8-17.3-15.8-26.1-23.6
		c20.5,10.3,37.2,25.2,48.8,44.8c25,42.1,15.7,84.9,1.4,127.6c33.6,2.4,45.2,6.4,58.4,20.6c4.7-0.5,9.3-0.7,13.7-1.7
		c2-0.5,4.7-2.1,5.4-3.8c2.7-7.8,5.5-15.7,6.9-23.7c4.6-24-1.1-47.3-7.8-70c-14.2-48.1-37.9-91.6-67-132.4
		c-18.2-25.6-37-51-52.4-78.3c-22-39.1-33.5-81.6-32.6-127.1c0.3-16.3-0.6-33.1-3.7-49.2c-5.3-28.4-14.8-55.8-35.8-76.5
		C427.6,3.8,379.9-8.6,326,5.8c-26.8,7.1-50.9,19.3-66,44.1c-12.3,20.1-17.1,42.7-16.9,65.6c0.4,42.2,0.4,84.8,4.8,126.7
		c3.9,37.1-2.6,68.8-27.9,96.7c-10.1,11.1-18.9,23.6-27.8,35.9c-37.1,51.1-61.1,108.9-83,167.6c-5.5,14.9-7.8,30.1-2.7,46.2
		C123.2,577.4,140.1,573.8,155.2,583.7z M287.3,812.3c2.8,13.8-4,24.3-16.2,32.6c-4,2.7-7.7,6-11,9.5c-14.6,15.2-32.4,18.3-52,13.5
		c-10.2-2.5-20.4-5.6-30.2-9.6c-37-14.9-75.4-24.5-114.3-32.4c-13.4-2.6-26.7-6.3-39.5-10.9C5.8,808.6,0,798,3.8,779.2
		c5.5-27.2,5.7-54.4,1.4-81.8c-3.4-21.4,1.9-29.1,22.9-34.6c8-2.1,16-4.5,24.1-5.9c15-2.7,26.1-10.6,34.9-22.7
		c7.7-10.6,15.1-21.6,24.2-31c16.1-16.6,30.5-17.2,45.6-0.2c16.8,19,32,39.4,46.2,60.5c23.7,35.2,43.9,72.9,71.3,105.8
		C284.3,781.1,288.9,795.2,287.3,812.3z M726.9,757.7c-7.9,6.4-16.8,11.8-25.7,16.9c-38,21.7-75,45-106.8,75.5
		c-15.5,14.9-34.2,19.8-54.9,19.5c-5.9-0.4-12-0.4-18-1.1c-21.9-2.8-34.7-15.4-39.4-36.9c-3.9-17.7-2.6-35.4,1.2-52.7
		c10.4-47.3,10.9-95.3,11.4-143.2c0.3-21.7,5.5-28.3,29.7-27.5c16.9,0.6,19.1,2.9,17.2,19.2c-2.2,20.3,12.9,35.5,35.8,37.7
		c25.5,2.5,41.7-12,56.7-29.3c3.1-3.7,5.3-8.1,8.1-12.1c6.7-9.7,19.9-9.1,24.5,1.8c2.7,6.6,4.2,14.5,3.4,21.5
		c-2,16.2,4.6,28.7,15.5,38.9c12.2,11.4,25.2,22.4,38.8,32.2C740.2,729.4,742.1,745.4,726.9,757.7z M325.8,309.5
		c21.9,3.9,41.8-1.1,60.1-13.7c9.8-6.8,20-13.6,31.1-17.8c16.7-6.5,25.3-17.3,26.6-35c1.1-14.6-1.6-20-15.5-25.6
		c-6.9-2.8-14-5.1-22.4-8.2c11.5-4,18.3-10.3,19.3-21.3c0.9-10.5-2.2-19.9-9.2-27.6c-6.5-7-15.2-6.6-23.2-3.9
		c-9,3.1-11.5,11.5-12.2,20c-0.6,7.4-0.1,14.9-0.1,22.4c-22.5-14.2-46.1-12.9-70.1-3.7c-1-8.6-1-17.2-3.2-25.3
		c-2.6-9.8-11.8-15.6-19.8-14.3c-7.7,1.3-12.8,8.9-13.2,19.7c-0.5,14.5,6.2,25.7,16.6,35.6c-5.4,4.6-10.4,8.7-15.3,13
		c-16.2,14.1-17.4,29.3-2.3,45c12.1,12.5,25.4,23.9,38.7,35.1C315.4,307.1,321,308.7,325.8,309.5z M475.7,728
		c-4.4,34.6-8.5,67.3-12.8,101.3c-52.1-13.1-106.2-1.4-159.5-1.6c-1.2-14.8-2.4-29.9-3.6-45.1C365.1,790.6,424.8,775.9,475.7,728z
		 M248.6,664.9c8.6,7.1,17,14.3,25.1,22c7.6,7.2,9.6,16.7,8.4,26.8c-1,8.6-9,16.2-17.5,15.9c-2.5-0.1-5.5-3.4-7.2-5.9
		c-18.8-29.3-37.4-58.8-56.2-88c-4.3-6.7-9.2-13-13.9-19.5c0.2-0.4,0.4-0.7,0.6-1C208.2,631.7,228.5,648.2,248.6,664.9z"/>
</g>
</svg>
