<?xml version="1.0" encoding="utf-8"?>
<!-- Generator: Adobe Illustrator 22.1.0, SVG Export Plug-In . SVG Version: 6.00 Build 0)  -->
<!DOCTYPE svg PUBLIC "-//W3C//DTD SVG 1.1//EN" "http://www.w3.org/Graphics/SVG/1.1/DTD/svg11.dtd">
<svg version="1.1" id="Layer_1" xmlns="http://www.w3.org/2000/svg" xmlns:xlink="http://www.w3.org/1999/xlink" x="0px" y="0px"
	 viewBox="0 0 220 30" style="enable-background:new 0 0 220 30;" xml:space="preserve">
<style type="text/css">
	.st0{fill:#FFFFFF;}
</style>
<g>
	<g>
		<g>
			<path class="st0" d="M12.8,25.6H3.6c-0.7-0.2-1.1-0.6-1.2-1.4l2.3-0.8h7.5L12.8,25.6z M2.4,23.7l0.7-7.2l0.6-0.6l1.5,1.7
				l-0.6,5.3L2.4,23.7z M6.3,8.4l-0.6,5.3l-1.9,1.7l-0.5-0.6l0.7-7.2L6.3,8.4z M13.8,7.8H6.4L4.2,7C4.5,6.3,5,5.8,5.8,5.6h9.1
				L13.8,7.8z M12.9,14.5l1,1.1l-1.2,1.1H5.4l-1-1.1l1.2-1.1H12.9z"/>
			<path class="st0" d="M20.8,7.8L18.7,7c0.3-0.7,0.8-1.2,1.5-1.4h8.9c0.7,0.2,1.1,0.6,1.2,1.4L28,7.8H20.8z M23.5,15.9l1,1.1
				l-0.7,7.2c-0.3,0.7-0.8,1.2-1.5,1.4l-0.6-2.2l0.7-6.4L23.5,15.9z M22.6,14.2l0.6-5.8h2.2l-0.6,5.8l-1.2,1.1L22.6,14.2z"/>
			<path class="st0" d="M34.2,17.5l-0.6,5.8l-1.1,2.2c-0.7-0.2-1.1-0.6-1.2-1.4l0.8-7.8l0.6-0.6L34.2,17.5z M32.7,15.6L32.3,15
				l0.8-7.8c0.3-0.7,0.8-1.2,1.5-1.4l0.6,2.2l-0.6,5.8L32.7,15.6z M41.8,14.5l1,1.1l-1.2,1.1h-7.2l-1-1.1l1.2-1.1H41.8z M43.3,15.9
				l0.5,0.6l-0.8,7.8c-0.3,0.7-0.8,1.2-1.5,1.4l-0.6-2.2l0.6-5.8L43.3,15.9z M41.8,13.7l0.6-5.8l1.1-2.2c0.7,0.2,1.1,0.6,1.2,1.4
				l-0.8,7.8l-0.6,0.6L41.8,13.7z"/>
			<path class="st0" d="M53,21.2h-2.2l0.2-2.2h2.2L53,21.2z M53.9,12.3h-2.2l0.2-2.2h2.2L53.9,12.3z"/>
			<path class="st0" d="M63.1,17.5l-0.6,5.8l-1.1,2.2c-0.7-0.2-1.1-0.6-1.2-1.4l0.8-7.8l0.6-0.6L63.1,17.5z M64.1,8.4l-0.6,5.3
				l-1.9,1.7l-0.5-0.6l0.8-7.2L64.1,8.4z M70.8,7.8h-6.6L62,7c0.3-0.7,0.8-1.2,1.5-1.4h8.3L70.8,7.8z M70.6,14.5l1,1.1l-1.2,1.1
				h-7.2l-1-1.1l1.2-1.1H70.6z M72.1,15.9l0.5,0.6l-0.8,7.8c-0.3,0.7-0.8,1.2-1.5,1.4l-0.6-2.2l0.6-5.8L72.1,15.9z M70.7,13.7
				l0.6-5.8l1.1-2.2c0.7,0.2,1.1,0.6,1.2,1.4l-0.8,7.8l-0.6,0.6L70.7,13.7z"/>
			<path class="st0" d="M77.5,17.5l-0.6,5.8l-1.1,2.2c-0.7-0.2-1.1-0.6-1.2-1.4l0.8-7.8l0.6-0.6L77.5,17.5z M76.1,15.3l-0.5-0.6
				L76.4,7c0.3-0.7,0.8-1.2,1.5-1.4l0.6,2.2l-0.6,5.8L76.1,15.3z M77.5,23.4h6.7l2.1,0.8c-0.3,0.7-0.8,1.2-1.5,1.4h-8.3L77.5,23.4z"
				/>
			<path class="st0" d="M92,17.5l-0.6,5.8l-1.1,2.2c-0.7-0.2-1.1-0.6-1.2-1.4l0.8-7.8l0.6-0.6L92,17.5z M92.9,8.4l-0.6,5.3l-1.9,1.7
				l-0.5-0.6l0.7-7.2L92.9,8.4z M99.7,7.8H93L90.9,7c0.3-0.7,0.8-1.2,1.5-1.4h8.3L99.7,7.8z M99.5,14.5l1,1.1l-1.2,1.1h-7.2l-1-1.1
				l1.2-1.1H99.5z M101,15.9l0.5,0.6l-0.8,7.8c-0.3,0.7-0.8,1.2-1.5,1.4l-0.6-2.2l0.6-5.8L101,15.9z M99.6,13.7l0.6-5.8l1.1-2.2
				c0.7,0.2,1.1,0.6,1.2,1.4l-0.8,7.8l-0.6,0.6L99.6,13.7z"/>
			<path class="st0" d="M106.4,17.5l-0.6,5.8l-1.1,2.2c-0.7-0.2-1.1-0.6-1.2-1.4l0.8-7.8l0.6-0.6L106.4,17.5z M107.4,8.4l-0.6,5.3
				l-1.9,1.7l-0.5-0.6l0.8-7.2L107.4,8.4z M114.1,7.8h-6.6L105.3,7c0.3-0.7,0.8-1.2,1.5-1.4h8.3L114.1,7.8z M114,14.5l1,1.1
				l-1.2,1.1h-7.2l-1-1.1l1.2-1.1H114z M107,17.3h1.7l6.5,7.2c-0.4,0.7-1.2,1.1-2.3,1.1l-6-6.7L107,17.3z M114.1,13.7l0.6-5.8
				l1.1-2.2c0.7,0.2,1.1,0.6,1.2,1.4l-0.8,7.8l-0.6,0.6L114.1,13.7z"/>
			<path class="st0" d="M120.9,17.5l-0.6,5.8l-1.1,2.2c-0.7-0.2-1.1-0.6-1.2-1.4l0.8-7.8l0.6-0.6L120.9,17.5z M121.8,8.4l-0.6,5.3
				l-1.9,1.7l-0.5-0.6l0.7-7.2L121.8,8.4z M128.6,7.8h-6.6L119.8,7c0.3-0.7,0.8-1.2,1.5-1.4h8.3L128.6,7.8z M125.9,14.8l-1.2,1.1
				l-1-1.1l0.7-6.4h2.2L125.9,14.8z M129.9,15.9l0.5,0.6l-0.8,7.8c-0.3,0.7-0.8,1.2-1.5,1.4l-0.6-2.2l0.6-5.8L129.9,15.9z
				 M128.5,13.7l0.6-5.8l1.1-2.2c0.7,0.2,1.1,0.6,1.2,1.4l-0.8,7.8l-0.6,0.6L128.5,13.7z"/>
			<path class="st0" d="M139.6,21.2h-2.2l0.2-2.2h2.2L139.6,21.2z M140.6,12.3h-2.2l0.2-2.2h2.2L140.6,12.3z"/>
			<path class="st0" d="M157.2,25.6h-9.2c-0.7-0.2-1.1-0.6-1.2-1.4l2.3-0.8h7.5L157.2,25.6z M146.9,23.7l0.7-7.2l0.6-0.6l1.5,1.7
				l-0.6,5.3L146.9,23.7z M150.7,8.4l-0.6,5.3l-1.9,1.7l-0.5-0.6l0.7-7.2L150.7,8.4z M158.3,7.8h-7.5L148.7,7
				c0.3-0.7,0.8-1.2,1.5-1.4h9.1L158.3,7.8z"/>
			<path class="st0" d="M164.2,17.5l-0.6,5.8l-1.1,2.2c-0.7-0.2-1.1-0.6-1.2-1.4l0.8-7.8l0.6-0.6L164.2,17.5z M162.7,15.3l-0.5-0.6
				l0.8-7.8c0.3-0.7,0.8-1.2,1.5-1.4l0.6,2.2l-0.6,5.8L162.7,15.3z M164.1,23.4h6.7l2.1,0.8c-0.3,0.7-0.8,1.2-1.5,1.4h-8.3
				L164.1,23.4z"/>
			<path class="st0" d="M178.6,17.5l-0.6,5.8l-0.9,0.8l-1.2-1.4l0.7-6.4l0.6-0.6L178.6,17.5z M177.2,15.3l-0.5-0.6l0.7-6.4l1.5-1.4
				l0.7,0.8l-0.6,5.8L177.2,15.3z M185.7,24.5l-1.2,1.1h-6.1l-1-1.1l1.2-1.1h6.1L185.7,24.5z M186.3,7.8h-6.1l-1-1.1l1.2-1.1h6.1
				l1,1.1L186.3,7.8z M187.7,15.9l0.5,0.6l-0.7,6.4l-1.5,1.4l-0.8-0.8l0.6-5.8L187.7,15.9z M186.3,13.7l0.6-5.8l0.9-0.8l1.3,1.4
				l-0.7,6.4l-0.6,0.6L186.3,13.7z"/>
			<path class="st0" d="M200.6,25.6h-9.2c-0.7-0.2-1.1-0.6-1.2-1.4l2.3-0.8h7.5L200.6,25.6z M190.2,23.7l0.7-7.2l0.6-0.6l1.5,1.7
				l-0.6,5.3L190.2,23.7z M194.1,8.4l-0.6,5.3l-1.9,1.7l-0.5-0.6l0.7-7.2L194.1,8.4z M201.6,7.8h-7.5L192,7c0.3-0.7,0.8-1.2,1.5-1.4
				h9.1L201.6,7.8z"/>
			<path class="st0" d="M207.5,17.5l-0.6,5.8l-1.1,2.2c-0.7-0.2-1.1-0.6-1.2-1.4l0.8-7.8l0.6-0.6L207.5,17.5z M206.1,15.3l-0.5-0.6
				l0.8-7.8c0.3-0.7,0.8-1.2,1.5-1.4l0.6,2.2l-0.6,5.8L206.1,15.3z M215.1,14.5l1,1.1l-1.2,1.1h-7.2l-1-1.1l1.2-1.1H215.1z
				 M208.6,12.3l7.4-6.7c1.1,0,1.8,0.4,2.1,1.1l-8,7.2h-1.7L208.6,12.3z M216.6,15.9l0.5,0.6l-0.8,7.8c-0.3,0.7-0.8,1.2-1.5,1.4
				l-0.6-2.2l0.6-5.8L216.6,15.9z"/>
		</g>
	</g>
</g>
</svg>
