<svg id="Layer_1" data-name="Layer 1" xmlns="http://www.w3.org/2000/svg" viewBox="0 0 215.72 20"><defs><style>.cls-1{fill:#fff;}</style></defs><title>logo-large-dark</title><path class="cls-1" d="M12.81,25.6H3.64a1.55,1.55,0,0,1-1.25-1.39l2.31-.83h7.5ZM2.45,23.66l.75-7.22.61-.56,1.5,1.67-.56,5.28ZM6.28,8.38l-.56,5.28L3.86,15.33l-.47-.56.75-7.22Zm7.56-.55H6.36L4.22,7A2.06,2.06,0,0,1,5.75,5.6h9.14Zm-1,6.66,1,1.11-1.23,1.12H5.39l-1-1.12,1.25-1.11Z" transform="translate(-2.39 -5.6)"/><path class="cls-1" d="M20.81,7.83,18.67,7A2.06,2.06,0,0,1,20.2,5.6h8.86A1.57,1.57,0,0,1,30.31,7L28,7.83Zm2.72,8.05,1,1.11-.75,7.22a2,2,0,0,1-1.53,1.39l-.61-2.22L22.31,17Zm-.92-1.67.61-5.83h2.23l-.62,5.83-1.24,1.12Z" transform="translate(-2.39 -5.6)"/><path class="cls-1" d="M34.2,17.55l-.62,5.83-1,2.22a1.55,1.55,0,0,1-1.25-1.39l.8-7.77.62-.56Zm-1.48-2-.47-.55.81-7.78a2.06,2.06,0,0,1,1.52-1.39L35.2,8.1l-.62,5.84Zm9-1.11,1,1.11L41.5,16.72H34.28l-1-1.12,1.25-1.11Zm1.5,1.39.5.56L43,24.21a2,2,0,0,1-1.53,1.39l-.61-2.22.61-5.83Zm-1.42-2.22.62-5.83,1-2.23A1.57,1.57,0,0,1,44.75,7L44,14.77l-.64.56Z" transform="translate(-2.39 -5.6)"/><path class="cls-1" d="M53,21.16H50.75L51,18.94h2.22Zm1-8.89H51.7l.22-2.22h2.22Z" transform="translate(-2.39 -5.6)"/><path class="cls-1" d="M63.08,17.55l-.61,5.83-1,2.22a1.55,1.55,0,0,1-1.25-1.39l.8-7.77.61-.56Zm1-9.17-.56,5.28-1.86,1.67-.47-.56.75-7.22Zm6.72-.55H64.14L62,7A2.06,2.06,0,0,1,63.53,5.6h8.3Zm-.14,6.66,1,1.11-1.22,1.12H63.17l-1-1.12,1.25-1.11Zm1.5,1.39.5.56-.81,7.77a2,2,0,0,1-1.52,1.39l-.61-2.22.61-5.83Zm-1.42-2.22.61-5.83L72.39,5.6A1.57,1.57,0,0,1,73.64,7l-.81,7.78-.63.56Z" transform="translate(-2.39 -5.6)"/><path class="cls-1" d="M77.53,17.55l-.61,5.83L75.86,25.6a1.55,1.55,0,0,1-1.25-1.39l.81-7.77.61-.56Zm-1.45-2.22-.47-.56L76.42,7A2.06,2.06,0,0,1,78,5.6l.61,2.23L78,13.66Zm1.39,8h6.67l2.14.83a2,2,0,0,1-1.53,1.39H76.42Z" transform="translate(-2.39 -5.6)"/><path class="cls-1" d="M92,17.55l-.61,5.83-1,2.22a1.54,1.54,0,0,1-1.25-1.39l.8-7.77.61-.56Zm1-9.17-.55,5.28-1.86,1.67-.47-.56.75-7.22Zm6.73-.55H93L90.89,7A2.06,2.06,0,0,1,92.42,5.6h8.3Zm-.14,6.66,1,1.11-1.22,1.12H92.06l-1-1.12,1.25-1.11Zm1.5,1.39.5.56-.81,7.77a2,2,0,0,1-1.53,1.39l-.61-2.22.61-5.83Zm-1.42-2.22.61-5.83,1.06-2.23A1.57,1.57,0,0,1,102.53,7l-.81,7.78-.64.56Z" transform="translate(-2.39 -5.6)"/><path class="cls-1" d="M106.42,17.55l-.61,5.83-1.06,2.22a1.55,1.55,0,0,1-1.25-1.39l.81-7.77.61-.56Zm1-9.17-.56,5.28L105,15.33l-.47-.56.75-7.22Zm6.72-.55h-6.64L105.33,7a2.06,2.06,0,0,1,1.53-1.39h8.31ZM114,14.49l1,1.11-1.22,1.12H106.5l-1-1.12,1.25-1.11Zm-7,2.78h1.67l6.47,7.22a2.5,2.5,0,0,1-2.33,1.11l-6-6.66Zm7.06-3.61.61-5.83,1-2.23A1.57,1.57,0,0,1,117,7l-.8,7.78-.64.56Z" transform="translate(-2.39 -5.6)"/><path class="cls-1" d="M120.86,17.55l-.61,5.83-1.06,2.22a1.56,1.56,0,0,1-1.25-1.39l.81-7.77.61-.56Zm1-9.17-.55,5.28-1.86,1.67-.48-.56.75-7.22Zm6.72-.55h-6.63L119.78,7A2.06,2.06,0,0,1,121.3,5.6h8.31Zm-2.66,6.94-1.25,1.11-1-1.11.66-6.39h2.23Zm4,1.11.5.56-.81,7.77a2,2,0,0,1-1.53,1.39l-.61-2.22.61-5.83Zm-1.42-2.22.61-5.83,1.06-2.23A1.57,1.57,0,0,1,131.42,7l-.81,7.78-.64.56Z" transform="translate(-2.39 -5.6)"/><path class="cls-1" d="M139.64,21.16h-2.22l.25-2.22h2.22Zm.94-8.89h-2.22l.22-2.22h2.22Z" transform="translate(-2.39 -5.6)"/><path class="cls-1" d="M157.25,25.6h-9.17a1.55,1.55,0,0,1-1.25-1.39l2.31-.83h7.5Zm-10.36-1.94.75-7.22.61-.56,1.5,1.67-.56,5.28Zm3.83-15.28-.55,5.28-1.87,1.67-.47-.56.75-7.22Zm7.56-.55H150.8L148.67,7a2,2,0,0,1,1.52-1.39h9.14Z" transform="translate(-2.39 -5.6)"/><path class="cls-1" d="M164.19,17.55l-.61,5.83-1.05,2.22a1.54,1.54,0,0,1-1.25-1.39l.8-7.77.61-.56Zm-1.44-2.22-.47-.56.8-7.78a2.06,2.06,0,0,1,1.53-1.39l.61,2.23-.61,5.83Zm1.39,8h6.66l2.14.83a2,2,0,0,1-1.52,1.39h-8.34Z" transform="translate(-2.39 -5.6)"/><path class="cls-1" d="M178.64,17.55,178,23.38l-.92.83-1.25-1.38.67-6.39.61-.56Zm-1.45-2.22-.47-.56.67-6.39L178.91,7l.75.84-.61,5.83Zm8.5,9.16-1.22,1.11h-6.11l-1-1.11,1.22-1.11h6.11Zm.64-16.66h-6.11l-1-1.12,1.22-1.11h6.11l1,1.11Zm1.36,8.05.5.56-.66,6.39L186,24.21l-.75-.83.61-5.83Zm-1.41-2.22.61-5.83L187.8,7l1.25,1.39-.66,6.39-.64.56Z" transform="translate(-2.39 -5.6)"/><path class="cls-1" d="M200.58,25.6h-9.17a1.56,1.56,0,0,1-1.25-1.39l2.31-.83H200Zm-10.36-1.94.75-7.22.61-.56,1.5,1.67-.55,5.28Zm3.83-15.28-.55,5.28-1.86,1.67-.48-.56.75-7.22Zm7.56-.55h-7.47L192,7a2.06,2.06,0,0,1,1.53-1.39h9.13Z" transform="translate(-2.39 -5.6)"/><path class="cls-1" d="M207.53,17.55l-.62,5.83-1,2.22a1.55,1.55,0,0,1-1.25-1.39l.8-7.77.62-.56Zm-1.45-2.22-.47-.56.8-7.78a2.06,2.06,0,0,1,1.53-1.39l.61,2.23-.61,5.83Zm9-.84,1,1.11-1.22,1.12h-7.22l-1-1.12,1.25-1.11Zm-6.44-2.22L216,5.6a2,2,0,0,1,2.11,1.11l-8,7.23h-1.67Zm7.94,3.61.5.56-.8,7.77a2,2,0,0,1-1.53,1.39l-.61-2.22.61-5.83Z" transform="translate(-2.39 -5.6)"/></svg>